<svg version="1.1" id="Layer_1" xmlns="http://www.w3.org/2000/svg" xmlns:xlink="http://www.w3.org/1999/xlink" x="0px" y="0px"
	 width="100%" viewBox="0 0 500 500" enable-background="new 0 0 500 500" xml:space="preserve">
<path fill="#000000" opacity="1.000000" stroke="none" 
	d="
M334.000000,501.000000 
	C224.000031,501.000000 114.500031,500.979462 5.000179,501.095367 
	C1.576365,501.098969 0.903033,500.423889 0.905298,497.000031 
	C1.013776,333.000122 1.013758,169.000153 0.905339,5.000260 
	C0.903076,1.576988 1.575754,0.903019 4.999863,0.905285 
	C168.999756,1.013775 332.999725,1.013760 496.999634,0.905354 
	C500.422638,0.903092 501.096985,1.575405 501.094727,4.999743 
	C500.986206,168.999634 500.986237,332.999603 501.094604,496.999512 
	C501.096893,500.422272 500.426178,501.106049 497.000183,501.097290 
	C442.833710,500.958801 388.666809,501.000000 334.000000,501.000000 
z"/>
<path fill="#0984D4" opacity="1.000000" stroke="none" 
	d="
M282.814331,102.044144 
	C290.870758,113.780037 296.866241,126.415817 303.431854,138.724777 
	C326.965973,182.845673 350.391296,227.025146 373.691559,271.270020 
	C389.099823,300.528748 404.226868,329.935608 419.462585,359.285095 
	C419.983765,360.289032 420.318756,361.389618 420.877777,362.788544 
	C416.789154,363.161804 413.918243,360.913605 410.955719,359.481781 
	C384.848114,346.864105 357.426727,339.310211 328.395691,338.515778 
	C298.809753,337.706177 270.977661,344.465332 245.419083,359.664764 
	C225.735672,371.370300 209.280945,386.709229 195.804108,405.161377 
	C191.990433,410.382965 187.519653,413.177795 181.073746,412.348602 
	C177.845901,411.933380 173.156586,414.051910 171.768051,411.311188 
	C170.579498,408.965179 174.225464,405.603333 175.938080,402.790985 
	C193.048828,374.692749 216.114410,352.994354 245.694534,338.498047 
	C266.244629,328.427094 287.985748,323.147064 310.954041,321.927429 
	C335.169403,320.641632 358.666077,323.297791 382.389435,331.624237 
	C380.657867,325.604034 377.618835,321.071533 375.138763,316.371399 
	C350.633728,269.930756 325.995026,223.560654 301.376282,177.180069 
	C291.797546,159.134186 282.173248,141.112488 272.309143,122.817284 
	C270.532471,121.584129 270.245087,120.105453 270.851105,118.621872 
	C273.123474,113.058609 276.102905,107.875252 279.721069,103.075462 
	C280.343475,102.249802 281.368561,101.991455 282.814331,102.044144 
z"/>
<path fill="#EA3339" opacity="1.000000" stroke="none" 
	d="
M283.060791,101.712875 
	C278.525970,108.112228 274.932556,114.761665 272.117676,122.218796 
	C266.607269,128.459732 263.480469,135.839645 259.516357,142.649811 
	C242.230347,172.346344 225.100922,202.135651 208.129974,232.013565 
	C187.143845,268.960419 166.388626,306.038391 145.497665,343.039398 
	C136.212784,359.484314 126.963226,375.951782 117.420570,392.246765 
	C115.016586,396.351776 116.561508,396.855652 120.150681,396.813538 
	C122.812859,396.782288 125.476227,396.853394 128.515656,396.956482 
	C131.769623,398.740204 131.127853,401.072021 130.095032,403.524933 
	C128.865295,406.445587 127.715118,409.402008 124.699005,411.564575 
	C113.125969,412.814270 101.801247,412.324677 90.491898,412.394379 
	C86.425827,412.419464 85.359810,409.987305 87.413940,406.354370 
	C112.626923,361.762268 137.747147,317.117279 163.097107,272.603149 
	C190.815613,223.929855 218.720505,175.362579 246.611984,126.788025 
	C252.324600,116.839180 258.341309,107.065025 264.210083,97.205727 
	C266.443573,93.453583 268.638916,89.367271 273.883057,90.024918 
	C279.170654,90.688011 280.906403,95.068405 282.409332,99.421555 
	C282.626007,100.049065 282.745819,100.710007 283.060791,101.712875 
z"/>
<path fill="#D31181" opacity="1.000000" stroke="none" 
	d="
M124.793213,411.943665 
	C124.013084,408.249146 126.805733,405.903076 127.861282,402.891754 
	C128.464401,401.171082 129.163605,399.576996 128.921600,397.380585 
	C134.941910,390.874512 137.972824,382.810059 142.147308,375.516907 
	C168.543655,329.400177 194.663574,283.125275 220.888458,236.910370 
	C234.739929,212.500534 248.619431,188.106613 262.484406,163.704437 
	C262.894745,162.982208 263.274414,162.242599 263.684296,161.520081 
	C266.103333,157.255905 269.086395,153.367813 274.628784,154.795929 
	C279.765503,156.119492 280.893738,160.641510 281.237244,165.834869 
	C283.625763,171.511948 279.209412,174.628387 277.273895,178.353912 
	C275.559174,181.654480 273.165802,184.654541 271.015533,188.103333 
	C265.029877,195.673019 261.051300,204.113037 256.452209,212.162537 
	C237.916992,244.603760 219.570053,277.152771 201.206604,309.691895 
	C183.333603,341.361969 165.399521,372.999023 147.806519,404.824280 
	C144.692749,410.457031 140.755707,412.760223 134.636017,412.309540 
	C131.491196,412.077911 128.323944,412.150543 124.793213,411.943665 
z"/>
<path fill="#65BF0E" opacity="1.000000" stroke="none" 
	d="
M310.864441,293.634766 
	C313.771606,293.517761 316.396088,293.490173 319.443298,293.578156 
	C321.815430,294.668945 323.881378,294.951538 325.300751,293.091400 
	C326.496704,291.524078 325.157318,289.893829 324.396484,288.492035 
	C314.033875,269.399445 303.998810,250.132248 293.891937,230.905426 
	C286.949005,217.697556 280.115570,204.425247 273.493469,191.048096 
	C272.197632,188.430344 271.896820,186.047134 273.668976,183.574280 
	C275.510529,181.004562 276.800385,178.102829 278.553833,175.464203 
	C281.432983,171.131668 282.956787,170.960907 285.330475,175.508408 
	C290.469452,185.353745 295.729401,195.134964 300.819092,205.007141 
	C310.485260,223.755936 320.350220,242.402054 330.147339,261.083130 
	C337.993591,276.044312 345.831055,291.009399 353.828949,305.890076 
	C354.541229,307.215302 355.517548,308.548950 354.314087,310.014587 
	C353.190430,311.382904 351.635101,310.950256 350.142792,310.758423 
	C326.909149,307.772003 303.754425,307.952454 280.693024,312.422943 
	C262.074066,316.032227 244.883484,323.289581 228.418274,332.512421 
	C218.128204,338.276276 208.638565,345.165131 199.479233,352.539886 
	C198.090424,353.658112 196.809219,354.680176 195.090286,353.376282 
	C194.002350,352.551025 193.927414,351.367798 194.573441,350.237946 
	C200.170517,340.448914 204.719040,330.054993 211.661072,320.591248 
	C212.976685,317.270477 215.479874,315.635284 218.032288,314.142273 
	C222.983475,311.246094 227.920944,308.291016 233.943298,306.791473 
	C236.530106,307.502289 238.493530,306.987213 240.612152,306.190063 
	C248.462662,303.236237 256.337158,300.620605 264.764618,299.284424 
	C270.539154,298.368896 276.362610,297.059998 282.143311,295.838501 
	C285.115967,295.210327 288.041016,295.173096 291.372803,294.785217 
	C293.025360,294.375610 294.317596,294.545044 295.971588,294.507324 
	C299.420532,294.604218 302.513397,294.921112 305.833252,293.712433 
	C306.832214,293.492767 307.508148,293.430145 308.518250,293.440582 
	C309.412384,293.719543 309.977875,293.879852 310.864441,293.634766 
z"/>
<path fill="#ECB615" opacity="1.000000" stroke="none" 
	d="
M234.350342,308.647827 
	C226.417191,311.401703 219.550690,315.384644 213.032608,320.624817 
	C212.151321,321.561829 211.382675,321.739471 210.306061,320.930237 
	C225.719452,291.598846 241.856689,262.933838 258.194122,234.380356 
	C260.504272,230.342850 262.543152,226.137268 265.045410,222.225586 
	C268.690826,216.526901 273.381226,216.480637 276.542969,222.255936 
	C287.790771,242.801208 298.819153,263.466492 310.011047,284.042572 
	C311.235779,286.294159 310.644897,287.019623 308.357910,287.053833 
	C303.473969,287.126831 298.588501,287.271942 293.706116,287.204926 
	C291.049713,287.168457 290.369598,284.741669 289.362518,282.892395 
	C283.107483,271.406403 276.893066,259.898254 270.178741,247.499268 
	C258.935364,267.037537 248.042999,285.965759 236.898132,305.238464 
	C237.239822,307.409698 235.891891,307.924652 234.350342,308.647827 
z"/>
<path fill="#6BA12E" opacity="1.000000" stroke="none" 
	d="
M209.846725,320.827820 
	C210.785690,320.664276 211.467667,320.773590 212.493301,320.893127 
	C205.947281,330.677307 200.570374,341.258423 196.473083,352.910675 
	C199.494141,350.625946 202.511703,348.336578 205.536819,346.057220 
	C222.179428,333.517181 240.402298,324.167053 260.024750,316.991547 
	C286.838196,307.186462 314.499725,307.730194 342.260773,308.183533 
	C344.886902,308.226440 347.503143,309.068634 350.117676,309.572540 
	C352.810852,310.091614 354.390747,309.378571 352.726044,306.529144 
	C345.799286,294.672852 340.544525,281.927917 333.037170,270.350830 
	C330.304504,266.136780 328.809814,261.056915 326.316803,256.527649 
	C320.800385,246.505493 315.796295,236.202667 310.493286,226.061356 
	C304.435852,214.477371 298.270538,202.949844 292.172943,191.386795 
	C289.550323,186.413498 287.022644,181.389771 284.369019,176.433258 
	C282.922333,173.731049 281.362793,172.241592 279.418182,176.211487 
	C278.033661,179.037918 276.265442,181.673767 274.781982,184.455246 
	C273.690247,186.502350 273.824982,188.636841 274.857361,190.702103 
	C279.907562,200.804489 284.863495,210.955627 290.043365,220.991165 
	C296.440063,233.384262 303.005157,245.690720 309.534088,258.015228 
	C315.116699,268.553375 320.748901,279.065308 326.364716,289.585846 
	C327.206909,291.163574 328.875275,293.080688 326.693573,294.351746 
	C324.783020,295.464813 322.224792,297.194489 319.965271,293.997101 
	C321.463074,293.396698 323.060150,293.099640 324.807587,292.774597 
	C324.252197,288.875458 321.842499,285.997192 320.190521,282.817963 
	C304.271973,252.182632 288.267609,221.591888 272.279114,190.992889 
	C271.895355,190.258499 271.411591,189.576355 270.832886,188.559464 
	C270.623016,184.131882 273.546509,181.388107 275.420013,178.198257 
	C277.583221,174.515182 280.106384,171.039017 281.220032,166.543518 
	C292.192566,186.881363 303.036377,207.461502 313.894135,228.034256 
	C327.850494,254.478149 341.826569,280.911621 355.754944,307.370239 
	C356.426453,308.645782 357.878296,310.090637 357.080322,311.450684 
	C356.000977,313.290314 354.061035,311.943237 352.533234,311.742004 
	C318.217743,307.221527 284.506439,308.643433 251.983856,321.868927 
	C230.193253,330.730225 211.130951,343.956238 192.726364,358.915588 
	C191.294754,360.126556 190.237946,361.383484 188.503922,359.464539 
	C195.457596,346.437134 202.523666,333.768890 209.846725,320.827820 
z"/>
<path fill="#6BA12E" opacity="1.000000" stroke="none" 
	d="
M234.452530,308.817871 
	C234.792389,307.795441 235.546371,306.814697 236.472992,305.708466 
	C246.777069,303.496368 256.302795,299.153198 266.570068,297.565582 
	C271.767822,296.761902 276.956085,295.896484 282.586029,295.026428 
	C285.761749,294.023926 288.582764,294.667511 291.777527,294.791534 
	C287.670288,295.962219 283.174347,297.042633 278.627350,297.826965 
	C266.926331,299.845276 255.234085,301.894867 244.042374,306.013092 
	C241.023438,307.124023 238.556488,309.921112 234.452530,308.817871 
z"/>
<path fill="#6BA12E" opacity="1.000000" stroke="none" 
	d="
M305.723022,293.452728 
	C303.901428,297.505127 300.549713,295.853088 297.060181,295.049805 
	C296.645966,294.651581 296.578583,294.472076 296.772644,294.172668 
	C297.034058,294.052795 297.438354,293.967865 297.643097,293.940552 
	C298.341156,293.614838 298.888336,293.503510 299.727356,293.391022 
	C301.764709,293.337219 303.527222,293.343658 305.723022,293.452728 
z"/>
<path fill="#6D7E4E" opacity="1.000000" stroke="none" 
	d="
M188.187317,359.322632 
	C189.555328,359.850830 190.734665,359.636108 192.154633,359.114563 
	C190.908096,360.748199 189.546967,362.588715 187.216888,363.335114 
	C186.269363,361.626617 187.404724,360.648682 188.187317,359.322632 
z"/>
<path fill="#547D2A" opacity="1.000000" stroke="none" 
	d="
M296.572388,293.988342 
	C297.034058,294.052795 296.876984,294.442963 296.795166,294.637024 
	C295.456238,294.883789 294.199158,294.936523 292.565765,295.002991 
	C289.433899,295.033264 286.678284,295.049805 283.473083,295.030151 
	C287.331116,293.967560 291.707672,293.783661 296.572388,293.988342 
z"/>
<path fill="#6BA12E" opacity="1.000000" stroke="none" 
	d="
M310.769989,293.446289 
	C310.601227,294.495026 309.958527,294.895050 308.962219,293.712219 
	C309.365936,293.458191 309.879395,293.402710 310.769989,293.446289 
z"/>
<path fill="#547D2A" opacity="1.000000" stroke="none" 
	d="
M299.712158,293.234283 
	C299.472534,293.516113 298.942871,293.701477 298.130493,293.900055 
	C298.372589,293.654755 298.897369,293.396271 299.712158,293.234283 
z"/>
</svg>